<svg width="12" height="14" viewBox="0 0 12 14" fill="none" xmlns="http://www.w3.org/2000/svg">
<path d="M6 13.4062C5.87695 13.4062 5.74805 13.3472 5.64062 13.2295C3.39453 10.7803 1.3125 8.1543 1.3125 5.51953C1.3125 2.70508 3.35156 0.59375 6 0.59375C8.64844 0.59375 10.6875 2.70508 10.6875 5.51953C10.6875 8.1543 8.60547 10.7803 6.35938 13.2295C6.25195 13.3472 6.12305 13.4062 6 13.4062ZM6 7.33203C7.05859 7.33203 7.92188 6.46875 7.92188 5.41016C7.92188 4.35156 7.05859 3.48828 6 3.48828C4.94141 3.48828 4.07812 4.35156 4.07812 5.41016C4.07812 6.46875 4.94141 7.33203 6 7.33203Z" fill="#007AFF"/>
</svg>
